<svg width="858" height="599" version="1.1" xmlns="http://www.w3.org/2000/svg" desc="Created with imagetracer.js version 1.2.6" ><path fill="rgb(231,0,11)" stroke="rgb(231,0,11)" stroke-width="1" opacity="1" d="M 0 0 L 858 0 L 858 599 L 0 599 L 0 0 Z M 234 183 L 223 188 L 217 193 L 217 186 L 217 185 L 193 185 L 193 251 L 219 251 L 219 214 L 221 208 L 227 203 L 233 204 L 236 208 Q 235 212 237 214 L 237 251 L 263 251 L 263 211 L 265 207 L 271 203 L 278 205 L 280 210 L 280 251 L 306 251 L 306 201 L 301 190 L 290 183 Q 277 181 271 185 L 261 193 Q 254 181 234 183 Z M 344 183 L 335 185 L 328 189 Q 321 193 320 203 L 323 204 L 331 204 L 332 205 L 345 206 L 346 203 L 354 198 L 364 199 Q 367 201 366 207 L 359 210 L 333 215 L 325 219 Q 320 222 318 229 Q 317 238 320 244 Q 325 251 335 253 Q 358 256 368 244 L 371 251 L 395 251 L 392 245 L 392 205 L 387 192 Q 382 186 375 184 Q 370 185 369 183 L 344 183 Z M 443 183 L 437 186 L 432 193 L 431 193 L 431 186 L 431 185 L 406 185 L 406 251 L 433 251 L 433 218 L 436 208 L 443 203 L 452 205 L 459 186 Q 454 182 443 183 Z M 492 183 Q 481 185 475 190 Q 464 197 462 212 L 462 225 L 467 239 L 476 247 L 484 251 L 493 253 L 513 253 Q 522 251 529 246 Q 537 240 539 228 L 537 227 L 516 225 L 513 230 Q 511 235 505 236 Q 498 237 495 234 L 490 230 L 488 223 L 488 215 L 491 206 Q 494 201 500 200 Q 506 199 510 202 Q 513 204 513 209 L 536 207 L 538 206 Q 537 198 532 194 L 520 185 L 512 183 L 492 183 Z M 578 183 Q 567 185 560 191 L 550 204 L 547 218 L 548 227 L 554 240 Q 562 250 578 253 L 595 253 L 600 252 L 612 246 L 620 237 L 624 227 Q 623 221 625 220 L 623 206 L 619 198 Q 608 180 578 183 Z M 437 287 L 437 379 L 438 379 L 463 379 L 463 288 L 463 287 L 437 287 Z M 306 311 Q 295 313 291 321 L 290 313 L 266 313 L 265 314 L 265 404 L 292 404 L 292 375 L 305 381 Q 320 383 328 376 L 336 366 L 339 355 Q 341 330 330 319 Q 323 309 306 311 Z M 378 311 Q 367 313 361 318 Q 350 326 347 342 Q 346 358 353 367 Q 361 378 378 381 L 395 381 Q 406 379 413 373 Q 421 366 424 353 L 424 339 L 418 325 Q 407 308 378 311 Z M 506 311 Q 495 313 489 318 Q 478 326 475 342 Q 474 358 481 367 Q 489 378 506 381 L 523 381 Q 534 379 541 373 Q 549 366 552 353 L 552 339 L 546 325 Q 535 308 506 311 Z M 340 416 L 340 429 L 349 429 L 352 424 L 351 419 L 349 416 L 340 416 Z M 359 416 L 359 429 L 361 429 L 361 417 L 359 416 Z M 369 416 L 369 429 L 372 429 L 372 424 L 379 423 L 380 421 L 379 418 L 378 416 L 369 416 Z M 387 416 L 387 427 L 390 429 Q 396 430 397 427 L 397 417 L 395 416 L 395 426 L 394 427 Q 390 428 389 426 L 389 417 L 387 416 Z M 405 416 L 406 418 L 409 418 L 409 429 L 411 429 L 411 418 L 415 418 L 415 416 L 405 416 Z M 425 416 L 419 428 Q 418 430 421 429 L 422 426 L 428 426 L 428 428 L 431 429 L 427 418 L 425 416 Z M 438 416 L 438 429 L 446 429 Q 450 427 449 420 Q 447 414 438 416 Z M 460 416 L 457 417 L 455 423 L 457 428 Q 459 430 465 429 Q 470 428 468 420 Q 467 415 460 416 Z " /><path fill="rgb(231,0,11)" stroke="rgb(231,0,11)" stroke-width="1" opacity="1" d="M 584.5 200 L 588.5 200 L 596 205.5 L 598 210.5 L 598 225.5 Q 596.8 231.3 592.5 234 Q 589.8 236.8 583.5 236 L 577 231.5 Q 572 224.9 574 211.5 L 579.5 202 L 584.5 200 Z " /><path fill="rgb(231,0,11)" stroke="rgb(231,0,11)" stroke-width="1" opacity="1" d="M 363.5 221 L 366 221.5 L 366 228.5 L 363 235 L 354.5 239 L 349.5 239 L 344 234.5 Q 343.1 227.6 347.5 226 L 363.5 221 Z " /><path fill="rgb(231,0,11)" stroke="rgb(231,0,11)" stroke-width="1" opacity="1" d="M 383.5 328 L 387.5 328 L 394 331 Q 399.6 337.2 398 351.5 Q 396.8 358.3 392.5 362 Q 389.6 364.6 383.5 364 L 376 358.5 L 374 354.5 L 373 344.5 Q 375.5 343 374 337.5 L 379.5 330 L 383.5 328 Z " /><path fill="rgb(231,0,11)" stroke="rgb(231,0,11)" stroke-width="1" opacity="1" d="M 511.5 328 L 515.5 328 L 522 331 Q 527.6 337.2 526 351.5 Q 524.8 358.3 520.5 362 Q 517.6 364.6 511.5 364 L 504 358.5 L 502 354.5 L 501 344.5 Q 503.5 343 502 337.5 L 507.5 330 L 511.5 328 Z " /><path fill="rgb(231,0,11)" stroke="rgb(231,0,11)" stroke-width="1" opacity="1" d="M 300.5 330 Q 308.6 329.9 311 335.5 Q 314.1 340.9 313 350.5 L 308.5 360 Q 306.2 362.7 300.5 362 L 294 357.5 L 292 353.5 L 292 338.5 L 297.5 331 L 300.5 330 Z " /><path fill="rgb(231,0,11)" stroke="rgb(231,0,11)" stroke-width="1" opacity="1" d="M 343 418 Q 347.6 416.8 349 419.5 Q 350.5 425.5 347.5 427 L 343 427 L 343 418 Z " /><path fill="rgb(231,0,11)" stroke="rgb(231,0,11)" stroke-width="1" opacity="1" d="M 372 418 L 377 418 L 377 420.5 Q 375.8 423 372 422 L 372 418 Z " /><path fill="rgb(231,0,11)" stroke="rgb(231,0,11)" stroke-width="1" opacity="1" d="M 440 418 Q 445.5 416.8 447 420.5 Q 447.6 425.6 444.5 427 L 440 427 L 440 418 Z " /><path fill="rgb(231,0,11)" stroke="rgb(231,0,11)" stroke-width="1" opacity="1" d="M 459.5 418 Q 465 417 466 420.5 Q 467 426 463.5 427 Q 459 428 458 425.5 Q 456.5 419.5 459.5 418 Z " /><path fill="rgb(231,0,11)" stroke="rgb(231,0,11)" stroke-width="1" opacity="1" d="M 424 420 Q 427 418.8 426 422.5 L 426.5 424 L 423 423.5 L 424 420 Z " /><path fill="rgb(254,250,250)" stroke="rgb(254,250,250)" stroke-width="1" opacity="1" d="M 233.5 183 Q 254.2 180.8 260.5 193 L 270.5 185 Q 277.4 181.4 289.5 183 L 301 189.5 L 306 200.5 L 306 251 L 280 251 L 280 209.5 L 278 205 L 270.5 203 L 265 206.5 L 263 210.5 L 263 251 L 237 251 L 237 213.5 Q 234.7 212.3 236 207.5 L 232.5 204 L 226.5 203 L 221 207.5 L 219 213.5 L 219 251 L 193 251 L 193 185 L 216.5 185 L 217 185.5 L 217 192.5 L 222.5 188 L 233.5 183 Z " /><path fill="rgb(254,250,250)" stroke="rgb(254,250,250)" stroke-width="1" opacity="1" d="M 343.5 183 L 368.5 183 Q 369.8 185.3 374.5 184 Q 382.3 186.3 387 191.5 L 392 204.5 L 392 244.5 L 395 250.5 L 370.5 251 L 367.5 244 Q 358 255.5 334.5 253 Q 324.6 250.9 320 243.5 Q 316.6 238.4 318 228.5 Q 319.5 222 324.5 219 L 332.5 215 L 358.5 210 L 366 206.5 Q 366.8 200.7 363.5 199 L 353.5 198 L 346 202.5 L 345 206 L 331.5 205 L 330.5 204 L 322.5 204 L 320 203 Q 320.8 193.5 327.5 189 L 334.5 185 L 343.5 183 Z M 364 221 L 348 226 Q 343 228 344 235 L 350 239 L 355 239 L 363 235 L 366 229 L 366 222 L 364 221 Z " /><path fill="rgb(254,250,250)" stroke="rgb(254,250,250)" stroke-width="1" opacity="1" d="M 442.5 183 Q 453.9 181.8 459 186 L 452 205 L 442.5 203 L 436 207.5 L 433 217.5 L 433 251 L 406 251 L 406 185 L 430.5 185 L 431 185.5 L 431 192.5 L 432 192.5 L 436.5 186 L 442.5 183 Z " /><path fill="rgb(254,250,250)" stroke="rgb(254,250,250)" stroke-width="1" opacity="1" d="M 491.5 183 L 511.5 183 L 519.5 185 L 532 193.5 Q 537.1 198.5 538 206 L 535.5 207 L 513 209 Q 513.1 204.1 509.5 202 Q 506.2 199.3 499.5 200 Q 493.8 201.3 491 205.5 L 488 214.5 L 488 222.5 L 490 229.5 L 494.5 234 Q 497.8 236.7 504.5 236 Q 510.6 234.6 513 229.5 L 515.5 225 L 536.5 227 L 539 228 Q 537.2 239.9 528.5 246 Q 522.1 251.1 512.5 253 L 492.5 253 L 483.5 251 L 475.5 247 L 467 238.5 L 462 224.5 L 462 211.5 Q 464.5 197 474.5 190 Q 481.1 184.6 491.5 183 Z " /><path fill="rgb(254,250,250)" stroke="rgb(254,250,250)" stroke-width="1" opacity="1" d="M 577.5 183 Q 608.2 180.3 619 197.5 L 623 205.5 L 625 219.5 Q 622.5 221 624 226.5 L 620 236.5 L 611.5 246 L 599.5 252 L 594.5 253 L 577.5 253 Q 561.9 250.1 554 239.5 L 548 226.5 L 547 217.5 L 550 203.5 L 559.5 191 Q 566.5 185 577.5 183 Z M 585 200 L 580 202 L 574 212 Q 572 225 577 232 L 584 236 Q 590 237 593 234 Q 597 231 598 226 L 598 211 L 596 206 L 589 200 L 585 200 Z " /><path fill="rgb(254,250,250)" stroke="rgb(254,250,250)" stroke-width="1" opacity="1" d="M 437 287 L 462.5 287 L 463 287.5 L 463 379 L 437.5 379 L 437 378.5 L 437 287 Z " /><path fill="rgb(254,250,250)" stroke="rgb(254,250,250)" stroke-width="1" opacity="1" d="M 305.5 311 Q 323.3 309.3 330 318.5 Q 341.1 329.9 339 354.5 L 336 365.5 L 327.5 376 Q 320.4 382.9 304.5 381 L 292 375 L 292 404 L 265 404 L 265 313.5 L 265.5 313 L 290 313 L 290.5 321 Q 295.2 313.2 305.5 311 Z M 301 330 L 298 331 L 292 339 L 292 354 L 294 358 L 301 362 Q 306 363 309 360 L 313 351 Q 314 341 311 336 Q 309 330 301 330 Z " /><path fill="rgb(254,250,250)" stroke="rgb(254,250,250)" stroke-width="1" opacity="1" d="M 377.5 311 Q 407.3 308.3 418 324.5 L 424 338.5 L 424 352.5 Q 421.2 365.7 412.5 373 Q 405.5 379 394.5 381 L 377.5 381 Q 361.1 377.9 353 366.5 Q 346.2 357.8 347 341.5 Q 349.5 325.5 360.5 318 Q 367.1 312.6 377.5 311 Z M 384 328 L 380 330 L 374 338 Q 376 343 373 345 L 374 355 L 376 359 L 384 364 Q 390 365 393 362 Q 397 358 398 352 Q 400 337 394 331 L 388 328 L 384 328 Z " /><path fill="rgb(254,250,250)" stroke="rgb(254,250,250)" stroke-width="1" opacity="1" d="M 505.5 311 Q 535.3 308.3 546 324.5 L 552 338.5 L 552 352.5 Q 549.2 365.7 540.5 373 Q 533.5 379 522.5 381 L 505.5 381 Q 489.1 377.9 481 366.5 Q 474.2 357.8 475 341.5 Q 477.5 325.5 488.5 318 Q 495.1 312.6 505.5 311 Z M 512 328 L 508 330 L 502 338 Q 504 343 501 345 L 502 355 L 504 359 L 512 364 Q 518 365 521 362 Q 525 358 526 352 Q 528 337 522 331 L 516 328 L 512 328 Z " /><path fill="rgb(254,250,250)" stroke="rgb(254,250,250)" stroke-width="1" opacity="1" d="M 340 416 L 348.5 416 L 351 418.5 L 352 423.5 L 348.5 429 L 340 429 L 340 416 Z M 343 418 L 343 427 L 348 427 Q 350 426 349 420 Q 348 417 343 418 Z " /><path fill="rgb(254,250,250)" stroke="rgb(254,250,250)" stroke-width="1" opacity="1" d="M 359 416 L 361 416.5 L 361 429 L 359 428.5 L 359 416 Z " /><path fill="rgb(254,250,250)" stroke="rgb(254,250,250)" stroke-width="1" opacity="1" d="M 369 416 L 377.5 416 L 379 417.5 L 380 420.5 L 379 423 L 372 424 L 372 429 L 369 429 L 369 416 Z M 372 418 L 372 422 Q 376 423 377 421 L 377 418 L 372 418 Z " /><path fill="rgb(254,250,250)" stroke="rgb(254,250,250)" stroke-width="1" opacity="1" d="M 387 416 L 389 416.5 L 389 425.5 Q 389.8 427.8 393.5 427 L 395 425.5 L 395 416 L 397 416.5 L 397 426.5 Q 395.8 430.3 389.5 429 L 387 426.5 L 387 416 Z " /><path fill="rgb(254,250,250)" stroke="rgb(254,250,250)" stroke-width="1" opacity="1" d="M 404.5 416 L 414.5 416 L 415 418 L 411 418 L 411 428.5 L 409 429 L 409 418 L 405.5 418 L 404.5 416 Z " /><path fill="rgb(254,250,250)" stroke="rgb(254,250,250)" stroke-width="1" opacity="1" d="M 424.5 416 L 427 417.5 L 431 429 L 428 427.5 L 427.5 426 L 422 426 L 420.5 429 Q 418.3 429.8 419 427.5 L 424.5 416 Z M 424 420 L 423 424 L 427 424 L 426 423 Q 427 419 424 420 Z " /><path fill="rgb(254,250,250)" stroke="rgb(254,250,250)" stroke-width="1" opacity="1" d="M 438 416 Q 446.8 414 449 419.5 Q 450.1 427.1 445.5 429 L 438 429 L 438 416 Z M 440 418 L 440 427 L 445 427 Q 448 426 447 421 Q 446 417 440 418 Z " /><path fill="rgb(254,250,250)" stroke="rgb(254,250,250)" stroke-width="1" opacity="1" d="M 459.5 416 Q 466.8 414.8 468 419.5 Q 469.5 427.5 464.5 429 Q 459.1 429.6 457 428 L 455 422.5 L 457 417 L 459.5 416 Z M 460 418 Q 457 420 458 426 Q 459 428 464 427 Q 467 426 466 421 Q 465 417 460 418 Z " /></svg>